PathFileType	4	(X/Y/Z)	/Volumes/GoogleDrive/My Drive/Research/Stanford/Projects/Digital Athlete Project/Sprinting/Sprint Simulation/sprinter/subjects/JA1/experimental_data/TRC/run0350cms.trc
DataRate	CameraRate	NumFrames	NumMarkers	Units	OrigDataRate	OrigDataStartFrame	OrigNumFrames
250.000000	250.000000	4	53	mm	250.000000	1	836
Frame#	Time	C7			RSH			LSH			MAN			T7			LARM			LELB			LFOREARM			LWR			RARM			RELB			RFOREARM			RWR			RASI			LASI			SACR			P1			P2			P3			LTHLP			LTHLD			LTHAP			LTHAD			LLEPI			LPAT			LTIAP			LTIAD			LTILAT			LLMAL			LHEEL			LMFS			LMFL			LP1MT			LTOE			LP5MT			RTHLP			RTHLD			RTHAP			RTHAD			RLEPI			RPAT			RTIAP			RTIAD			RTILAT			RLMAL			RHEEL			RMFS			RMFL			RP1MT			RTOE			RP5MT			x52			x53			
		X1	Y1	Z1	X2	Y2	Z2	X3	Y3	Z3	X4	Y4	Z4	X5	Y5	Z5	X6	Y6	Z6	X7	Y7	Z7	X8	Y8	Z8	X9	Y9	Z9	X10	Y10	Z10	X11	Y11	Z11	X12	Y12	Z12	X13	Y13	Z13	X14	Y14	Z14	X15	Y15	Z15	X16	Y16	Z16	X17	Y17	Z17	X18	Y18	Z18	X19	Y19	Z19	X20	Y20	Z20	X21	Y21	Z21	X22	Y22	Z22	X23	Y23	Z23	X24	Y24	Z24	X25	Y25	Z25	X26	Y26	Z26	X27	Y27	Z27	X28	Y28	Z28	X29	Y29	Z29	X30	Y30	Z30	X31	Y31	Z31	X32	Y32	Z32	X33	Y33	Z33	X34	Y34	Z34	X35	Y35	Z35	X36	Y36	Z36	X37	Y37	Z37	X38	Y38	Z38	X39	Y39	Z39	X40	Y40	Z40	X41	Y41	Z41	X42	Y42	Z42	X43	Y43	Z43	X44	Y44	Z44	X45	Y45	Z45	X46	Y46	Z46	X47	Y47	Z47	X48	Y48	Z48	X49	Y49	Z49	X50	Y50	Z50	X51	Y51	Z51	X52	Y52	Z52	X53	Y53	Z53	
1	0.004000	-5478.690918	1588.100952	209.901779	-5473.569336	1586.329102	379.792419	-5446.876465	1561.905029	55.552574	-5346.796875	1488.433594	242.343842	-5548.901855	1401.480347	216.891907	-5460.914063	1371.265137	-41.399727	-5469.784180	1237.868042	-73.294731	-5334.935547	1245.921631	-17.926270	-5222.502441	1257.945190	36.433624	-5600.314941	1472.143311	459.862732	-5708.772949	1388.397095	492.719330	-5644.026855	1260.112061	506.226135	-5596.010254	1136.986694	505.214020	-5370.828125	1117.955444	329.121582	-5387.336914	1097.108521	120.197479	-5558.723145	1160.898071	251.697693	-5573.425781	1133.779175	199.913834	-5569.296387	1131.566284	306.868958	-5601.645020	1077.905151	253.743179	-5562.765137	823.555420	64.384666	-5595.542969	715.652588	83.478241	-5435.216309	778.926697	138.699829	-5479.520996	678.199402	147.188171	-5642.284668	600.815247	107.724548	-5540.480957	572.686951	162.395584	-5713.773438	442.790283	190.754257	-5807.922363	339.187469	201.023132	-5800.291016	417.344604	122.011208	-5929.862793	242.747467	154.615250	-5989.341309	273.815918	201.259964	-5859.189941	161.011856	217.966476	-5905.974121	156.169815	156.517899	-5859.730957	94.690277	270.563599	-5823.924316	83.761711	237.152542	-5902.591309	82.975281	139.612274	-5353.712402	886.825134	431.774414	-5274.397461	805.567444	420.295227	-5239.293945	935.679260	355.388824	-5180.543945	859.502075	351.247589	-5191.992676	684.048889	386.089325	-5102.505859	707.105530	339.135437	-5230.641602	482.408386	295.707245	-5291.054199	372.665466	275.528198	-5283.107422	485.205048	371.792236	-5370.270996	267.670563	322.167023	-5442.610352	268.511719	266.993530	-5274.745117	217.171692	284.756622	-5332.179688	204.449371	333.386627	-5239.166992	147.007553	244.289413	-5208.272461	148.199020	286.429932	-5287.028320	137.072174	359.930878	-5165.358398	1264.056152	64.062050	-5569.157715	1068.130615	504.648010
2	0.008000	-5464.361328	1590.376465	209.992340	-5459.408203	1588.816772	379.631927	-5432.745117	1564.449463	55.901501	-5332.479980	1491.140015	242.757553	-5534.225586	1403.715332	216.960953	-5446.447266	1373.971191	-41.028091	-5454.680664	1240.509766	-72.909004	-5322.542969	1250.531372	-15.720457	-5209.099121	1266.648560	38.555084	-5587.166992	1476.114868	458.888123	-5696.616699	1393.221924	491.142517	-5633.084473	1264.569458	505.646454	-5585.653809	1140.921509	505.080200	-5355.706543	1120.223145	329.265686	-5371.900879	1099.269409	120.207222	-5543.316895	1163.407471	251.643051	-5557.846191	1136.333862	199.784821	-5553.861816	1133.986328	306.783112	-5586.397949	1080.439087	253.586670	-5549.808105	827.281982	64.590355	-5583.504395	719.656006	83.542656	-5422.327637	781.236633	138.455643	-5465.965332	681.319458	145.048721	-5631.319336	605.132568	107.704971	-5529.640137	575.872253	161.982162	-5704.377930	446.825348	190.306808	-5798.010742	343.604279	200.515274	-5790.601562	422.621094	121.694801	-5921.453613	248.734741	154.063492	-5978.996094	281.689575	201.076004	-5855.808594	163.834045	215.679932	-5899.245117	161.142059	156.102386	-5858.429688	97.800850	267.835907	-5821.314941	84.233528	235.445312	-5898.852051	87.063538	139.806168	-5339.987793	887.836243	431.474640	-5261.557129	805.920593	419.780792	-5225.248047	936.743103	357.536285	-5166.637695	859.998535	352.037292	-5179.234375	683.910217	386.097351	-5089.829590	708.158630	339.419189	-5211.067383	480.316528	296.106262	-5267.716309	368.453827	275.717102	-5264.037109	481.575806	372.213684	-5342.533691	260.313873	322.244263	-5415.804688	259.390045	267.493225	-5245.695801	213.107941	284.233978	-5303.238770	196.570145	333.037048	-5208.181152	144.559586	242.959702	-5181.515137	145.384232	282.886871	-5255.206543	132.058182	358.767578	-5151.441406	1274.840210	66.140633	-5559.128906	1071.773193	504.763550
3	0.012000	-5449.988770	1592.603027	210.070435	-5445.317871	1591.271484	379.504639	-5418.584473	1566.822510	56.270714	-5318.097168	1493.869629	243.075500	-5519.332520	1405.825928	217.035965	-5432.016113	1376.501343	-40.518234	-5439.827637	1242.983887	-72.301064	-5308.174316	1255.972778	-14.579533	-5195.686035	1274.819580	40.615196	-5573.962402	1479.856201	457.937042	-5684.126953	1397.812622	489.649628	-5621.749512	1268.745239	505.098785	-5574.349609	1144.653809	504.954956	-5340.555176	1122.391724	329.565735	-5356.254395	1101.127563	120.574814	-5527.763184	1165.686157	251.558670	-5542.251953	1138.665039	199.672089	-5538.525879	1136.218506	306.683685	-5570.981445	1082.770508	253.384155	-5536.593262	830.841431	64.756760	-5571.138184	723.426270	83.581963	-5409.635254	783.428833	138.231827	-5456.044922	683.210693	146.556595	-5619.673340	609.163757	107.720200	-5518.520508	578.418213	161.673828	-5694.597656	451.178375	190.090179	-5787.714355	348.339081	200.238205	-5780.153809	427.642914	121.465813	-5911.622070	254.722626	153.158157	-5968.036133	289.500702	200.714584	-5845.215332	169.003128	216.455582	-5892.623047	166.578430	155.617264	-5853.081055	101.942818	267.591766	-5816.474609	85.571892	234.573349	-5895.655762	91.944771	139.902283	-5326.422363	888.549988	431.138824	-5248.852539	805.923096	419.209564	-5210.097656	937.500305	358.442169	-5152.729980	860.009216	352.757233	-5167.010254	683.251343	386.340607	-5077.345215	708.791687	339.810638	-5191.771484	478.112762	296.460236	-5244.111816	363.476929	275.229675	-5244.680176	477.499634	372.438538	-5314.692383	253.093964	322.412048	-5388.189941	250.137604	268.029480	-5216.428223	209.382004	283.940033	-5273.456055	191.069412	332.931702	-5177.193848	142.455322	241.747696	-5147.012207	144.617706	282.861359	-5223.124023	127.153854	357.507050	-5138.514160	1284.398438	68.667923	-5547.841797	1075.257446	504.874512
4	0.016000	-5435.622070	1594.720581	210.150467	-5430.986328	1593.456543	379.441681	-5404.439941	1569.174072	56.632088	-5303.792969	1496.461060	243.308868	-5504.666504	1407.880005	217.143875	-5417.617188	1378.958618	-40.006062	-5425.072754	1245.332886	-71.597237	-5294.857422	1260.735596	-12.918549	-5182.825684	1282.255127	42.752148	-5560.576660	1483.397827	457.113861	-5671.476563	1402.083618	488.222717	-5610.091309	1272.710205	504.489288	-5563.338379	1148.181396	504.882538	-5325.536133	1124.266357	329.783508	-5340.653809	1102.812012	120.877831	-5512.305664	1167.753784	251.526016	-5526.693848	1140.818237	199.565323	-5523.158203	1138.250610	306.518158	-5555.671875	1084.867554	253.134094	-5523.129883	834.115540	64.892212	-5558.363770	727.004578	83.665886	-5396.428711	785.571350	138.163940	-5443.225098	685.877563	146.103806	-5607.896484	612.930481	107.766182	-5507.809570	580.954468	161.915894	-5679.514160	458.435913	192.360245	-5772.115234	355.978485	202.447830	-5768.970215	432.525116	120.954468	-5902.323730	260.879272	152.463394	-5957.141113	297.160034	200.476730	-5837.044434	173.689117	216.399155	-5883.633789	171.843887	155.926697	-5856.894531	104.334534	261.275055	-5809.351562	88.339264	235.528381	-5891.112305	96.825134	139.940659	-5312.821289	889.068420	430.750519	-5236.340820	805.759033	418.659149	-5195.279785	937.723694	359.412445	-5139.045898	859.831726	353.387024	-5154.748535	682.387451	386.313660	-5065.334961	709.021545	340.062836	-5172.913574	475.688507	296.753052	-5220.927734	359.877960	276.495544	-5225.344238	473.313232	372.665924	-5287.264648	246.131271	322.748810	-5360.747070	241.074402	268.722260	-5187.554688	205.811874	283.620544	-5243.484863	185.818726	332.355896	-5146.028809	140.478668	240.595367	-5117.188965	143.224747	280.376770	-5191.230469	122.733589	356.434753	-5125.885254	1293.192505	71.046783	-5537.192383	1078.540405	505.102448
